<?xml version='1.0' encoding='utf-8'?>
<svg xmlns="http://www.w3.org/2000/svg" width="3000" height="4436.6104" viewBox="0 0 793.74999 1173.8532" version="1.1" id="svg2113"> <defs id="defs2110"/> <g id="layer2" style="display:inline"> <path style="display:inline;fill:none;stroke:#000000;stroke-width:19.244;stroke-linecap:round;stroke-linejoin:round;stroke-dasharray:none;stroke-opacity:1" d="m 774.94096,447.32869 c -30.05383,-4.69325 -35.54896,47.86187 -1.88177,43.41282 28.68355,-4.2094 29.7349,-36.38794 1.88177,-43.41282 z" id="path1815" transform="translate(-78.871297,-106.03392)"/> <path style="display:inline;stroke:#000000;stroke-width:19.244;stroke-linecap:round;stroke-linejoin:round;stroke-dasharray:none;stroke-dashoffset:37.8;paint-order:normal;stroke-opacity:1;fill:none" d="m 683.87121,210.85829 c -6.74304,-26.06009 8.72009,-64.66291 33.41644,-80.97083 26.93634,-17.78694 68.79886,-14.30596 96.82218,1.71285 27.04634,15.46131 50.06094,48.55555 48.83939,79.68547 -1.62012,41.27229 -54.81765,71.54142 -70.68863,109.67457 -11.97778,28.77884 5.74552,57.50676 -3.85573,83.9696 -4.87163,13.42698 -36.54595,13.67791 -42.84168,0.85643 -10.2533,-20.88008 -8.38789,-71.7618 0.85642,-105.81884 9.5818,-35.29876 61.09611,-49.75764 65.11931,-86.11175 1.50375,-13.58464 -6.69649,-29.15068 -17.99349,-36.84379 -14.91928,-10.15965 -34.95293,-14.69744 -49.69619,-4.28413 -13.52481,9.55251 -14.6387,38.8172 -28.70392,47.5542 -12.37108,7.68457 -27.62638,4.6738 -31.27447,-9.42505 z" id="path1976" transform="translate(-78.871297,-106.03392)"/> <path style="fill-opacity:1;stroke:#000000;stroke-width:19.244;stroke-linecap:round;stroke-linejoin:round;stroke-dasharray:none;stroke-dashoffset:37.8;stroke-opacity:1;paint-order:fill markers stroke" d="m 325.61597,461.65119 a 17.280606,19.466308 0 0 1 -17.28059,19.46634 17.280606,19.466308 0 0 1 -17.2806,-19.46634 17.280606,19.466308 0 0 1 17.2806,-19.46633 17.280606,19.466308 0 0 1 17.28059,19.46633 z" id="path2409" transform="translate(-78.871297,-106.03392)"/> <path style="fill-opacity:1;stroke:#000000;stroke-width:19.244;stroke-linecap:round;stroke-linejoin:round;stroke-dasharray:none;stroke-dashoffset:37.8;stroke-opacity:1;paint-order:fill markers stroke" d="m 488.13488,470.10618 a 14.701891,19.466308 15.306905 0 1 -19.31923,14.89472 14.701891,19.466308 15.306905 0 1 -9.0415,-22.65693 14.701891,19.466308 15.306905 0 1 19.31934,-14.89454 14.701891,19.466308 15.306905 0 1 9.04139,22.65675 z" id="path2407" transform="translate(-78.871297,-106.03392)"/> <path style="opacity:1;fill:none;fill-opacity:1;stroke:#000000;stroke-width:19.244;stroke-linecap:round;stroke-linejoin:round;stroke-dasharray:none;stroke-dashoffset:37.8;stroke-opacity:1;paint-order:normal" d="m 281.90693,383.03161 -44.80386,54.57928" id="path19028" transform="translate(-78.871297,-106.03392)"/> <path style="display:inline;opacity:1;fill:none;fill-opacity:1;stroke:#000000;stroke-width:19.244;stroke-linecap:round;stroke-linejoin:round;stroke-dasharray:none;stroke-dashoffset:37.8;stroke-opacity:1;paint-order:normal" d="m 455.44841,374.07096 60.25322,36.2503" id="path19030" transform="translate(-78.871297,-106.03392)"/> <path style="display:inline;opacity:1;fill:none;fill-opacity:1;stroke:#000000;stroke-width:19.244;stroke-linecap:round;stroke-linejoin:round;stroke-dasharray:none;stroke-dashoffset:37.8;stroke-opacity:1;paint-order:normal" d="m 388.6647,403.93078 v 202.75901 h 66.78371 l -54.11142,46.08174" id="path19032" transform="translate(-78.871297,-106.03392)"/> <path style="opacity:1;fill:none;fill-opacity:1;stroke:#000000;stroke-width:19.244;stroke-linecap:round;stroke-linejoin:round;stroke-dasharray:none;stroke-dashoffset:37.8;stroke-opacity:1;paint-order:normal" d="m 225.69445,849.72415 77.18671,47.23361 c -56.34126,28.15151 -67.94412,57.29586 -81.21885,86.4031 l -66.81833,-52.46968 c 35.23717,-49.20891 44.4375,-62.4319 70.85047,-81.16703 z" id="path19958"/> <path style="display:inline;opacity:1;fill:none;fill-opacity:1;stroke:#000000;stroke-width:19.244;stroke-linecap:round;stroke-linejoin:round;stroke-dasharray:none;stroke-dashoffset:37.8;stroke-opacity:1;paint-order:normal" d="m 369.1328,609.38002 c -0.31279,-1.81193 -44.06652,-13.18062 -65.0666,1.87142 -29.86328,21.40484 -28.23023,84.17033 -9.25057,85.25169 44.65433,2.54416 68.81418,-46.77542 68.81418,-46.77542" id="path20086"/> <path style="display:inline;opacity:1;fill:none;fill-opacity:1;stroke:#000000;stroke-width:19.244;stroke-linecap:round;stroke-linejoin:round;stroke-dasharray:none;stroke-dashoffset:37.8;stroke-opacity:1;paint-order:normal" d="m 87.313851,238.6589 22.025939,126.05686 c 0,0 -39.943613,-46.09366 -59.907559,-34.56344 -53.2062107,30.72937 -52.9549613,153.1675 0,184.32785 20.445279,12.03064 62.212389,-34.55908 62.212389,-34.55908 0,0 5.62043,153.19934 29.9493,202.75758 24.32888,49.55824 46.79123,80.50813 87.55666,91.01082 28.62486,7.37483 68.49223,2.19025 100.2618,-8.57043 22.52643,-7.62994 60.1512,-38.37628 60.1512,-38.37628" id="path20088"/> <path style="display:inline;opacity:1;fill:none;fill-opacity:1;stroke:#000000;stroke-width:19.244;stroke-linecap:round;stroke-linejoin:round;stroke-dasharray:none;stroke-dashoffset:37.8;stroke-opacity:1;paint-order:normal" d="m 494.10434,251.95169 -2.28854,154.23436 c 0,0 15.70578,-68.52786 35.35405,-74.68345 35.53574,-11.13296 38.57238,119.07794 -0.68368,150.09933 -20.93275,16.54173 -30.06096,-13.20805 -30.06096,-13.20805 -4.84546,34.70558 -4.31875,60.85646 -19.71598,112.36478" id="path20090"/> <path style="opacity:1;fill:none;fill-opacity:1;stroke:#000000;stroke-width:19.244;stroke-linecap:round;stroke-linejoin:round;stroke-dasharray:none;stroke-dashoffset:37.8;stroke-opacity:1;paint-order:normal" d="m 302.88116,896.95776 19.58454,-42.65962 c 26.46197,-17.59487 51.63645,-9.35773 69.12258,10.40257 l -30.52908,66.19047 c -10.85854,-21.65251 -32.84441,-29.82131 -58.17804,-33.93342 z" id="path20092"/> <path style="opacity:1;fill:none;fill-opacity:1;stroke:#000000;stroke-width:19.244;stroke-linecap:round;stroke-linejoin:round;stroke-dasharray:none;stroke-dashoffset:37.8;stroke-opacity:1;paint-order:normal" d="m 229.15058,773.68949 -3.45613,76.03466" id="path20094"/> <path style="display:inline;opacity:1;fill:none;fill-opacity:1;stroke:#000000;stroke-width:19.244;stroke-linecap:round;stroke-linejoin:round;stroke-dasharray:none;stroke-dashoffset:37.8;stroke-opacity:1;paint-order:normal" d="m 329.41238,765.11906 c -5.87233,28.60827 -6.27513,58.93591 -6.94668,89.17908" id="path20096"/> <path style="opacity:1;fill:none;fill-opacity:1;stroke:#000000;stroke-width:19.244;stroke-linecap:round;stroke-linejoin:round;stroke-dasharray:none;stroke-dashoffset:37.8;stroke-opacity:1;paint-order:normal" d="M 435.36584,114.72237 399.48569,86.914079 c 0,0 -77.76029,-60.112312 -124.25349,-70.115059 C 229.24478,6.9050886 175.11746,5.4337429 134.68327,29.4714 78.746128,62.725386 33.198006,127.19078 26.391472,191.90911 22.586468,228.0881 66.71289,293.3229 66.71289,293.3229 l 26.49692,-70.3086 41.47346,49.40961 26.49694,-81.66688 27.64895,56.45013 62.48942,-66.81835 28.52179,83.07426 35.71322,-60.03348 27.63128,60.03348 28.81834,-47.3611 34.70055,33.40917 22.39817,-38.79502 12.30217,28.42663 22.65167,-39.23342 30.04857,52.04236 23.69429,-23.69137 26.97667,29.31505 c 0,0 1.85346,-105.79952 -23.00639,-149.76514 C 511.13034,88.995506 493.06977,70.812813 471.92416,66.33665 447.36684,61.138288 399.48569,86.914079 399.48569,86.914079" id="path20098"/> <path style="opacity:1;fill:none;fill-opacity:1;stroke:#000000;stroke-width:19.244;stroke-linecap:round;stroke-linejoin:round;stroke-dasharray:none;stroke-dashoffset:37.8;stroke-opacity:1;paint-order:normal" d="m 391.58828,864.70071 107.4666,30.64206 -41.80234,92.59188 -61.09065,-16.09428" id="path20138"/> <path style="display:inline;opacity:1;fill:none;fill-opacity:1;stroke:#000000;stroke-width:19.244;stroke-linecap:round;stroke-linejoin:round;stroke-dasharray:none;stroke-dashoffset:37.8;stroke-opacity:1;paint-order:normal" d="m 406.79449,974.64167 7.95695,189.58953" id="path20140"/> <path style="display:inline;opacity:1;fill:none;fill-opacity:1;stroke:#000000;stroke-width:19.244;stroke-linecap:round;stroke-linejoin:round;stroke-dasharray:none;stroke-dashoffset:37.8;stroke-opacity:1;paint-order:normal" d="m 298.30741,960.46027 c 1.56611,9.69086 3.66451,17.18309 2.84568,36.72498" id="path20142"/> <path style="display:inline;opacity:1;fill:none;fill-opacity:1;stroke:#000000;stroke-width:19.244;stroke-linecap:round;stroke-linejoin:round;stroke-dasharray:none;stroke-dashoffset:37.8;stroke-opacity:1;paint-order:normal" d="M 161.18021,941.88707 125.74887,1056.7664" id="path20148"/> <path style="display:inline;opacity:1;fill:none;fill-opacity:1;stroke:#000000;stroke-width:19.244;stroke-linecap:round;stroke-linejoin:round;stroke-dasharray:none;stroke-dashoffset:37.8;stroke-opacity:1;paint-order:normal" d="m 298.30742,1038.2231 c 1.56611,9.6909 3.66451,17.1831 2.84568,36.725" id="path20150"/> <path style="display:inline;opacity:1;fill:none;fill-opacity:1;stroke:#000000;stroke-width:19.244;stroke-linecap:round;stroke-linejoin:round;stroke-dasharray:none;stroke-dashoffset:37.8;stroke-opacity:1;paint-order:normal" d="m 298.30742,1115.9857 c 1.56611,9.6909 3.66451,17.1831 2.84568,36.725" id="path20152"/> <path style="display:inline;opacity:1;fill:none;fill-opacity:1;stroke:#000000;stroke-width:19.244;stroke-linecap:round;stroke-linejoin:round;stroke-dasharray:none;stroke-dashoffset:37.8;stroke-opacity:1;paint-order:normal" d="m 468.63245,967.26617 c 0,0 87.46242,42.49913 121.59166,38.44943 21.99923,-2.6104 40.10173,-41.58962 37.8502,-54.62952 -10.00665,-57.95432 -55.89025,-186.4312 -57.13709,-186.46179" id="path20154"/> <path style="display:inline;opacity:1;fill:none;fill-opacity:1;stroke:#000000;stroke-width:19.244;stroke-linecap:round;stroke-linejoin:round;stroke-dasharray:none;stroke-dashoffset:37.8;stroke-opacity:1;paint-order:normal" d="m 495.62789,902.93326 63.38845,20.80901 -50.8137,-144.4271" id="path20156"/> <path style="display:inline;opacity:1;fill:none;fill-opacity:1;stroke:#000000;stroke-width:19.244;stroke-linecap:round;stroke-linejoin:round;stroke-dasharray:none;stroke-dashoffset:37.8;stroke-opacity:1;paint-order:normal" d="m 463.62175,617.60771 c -4.65637,11.91315 -11.07342,23.91679 -17.42019,35.91682" id="path20160"/> <path style="display:inline;opacity:1;fill:none;fill-opacity:1;stroke:#000000;stroke-width:19.244;stroke-linecap:round;stroke-linejoin:round;stroke-dasharray:none;stroke-dashoffset:37.8;stroke-opacity:1;paint-order:normal" d="m 570.93722,764.62429 c -2.49681,-9.12105 -29.39502,-149.70087 -36.28702,-153.74453 -10.57791,-6.20625 -58.85002,-30.58774 -88.45118,-45.97318 -14.97657,-7.78419 -23.32639,-3.43259 -30.94173,3.27297 -18.74163,16.50263 -37.2668,32.98342 -57.06358,51.03482 -9.15176,8.34489 -10.05674,17.33667 -5.30887,23.67957 5.75684,7.69083 16.79223,9.5334 26.4233,0.14544 12.17245,-11.8652 34.86632,-32.62724 40.35256,-38.41535 7.62484,-8.04438 15.95227,-5.80145 23.92286,-0.32547 l 52.78839,36.26684 c 0,0 -63.63923,15.44625 -92.04983,24.60453 -19.76016,6.36977 -22.26294,41.52044 -8.54607,38.97048 32.99019,-6.13286 98.31519,-21.62885 98.31519,-21.62885 0,0 -76.28865,18.87854 -101.77726,27.33109 -11.14622,3.69632 2.92752,46.51209 21.97578,41.07736 26.40908,-7.53487 81.86492,-19.18941 81.86492,-19.18941 0,0 -60.34022,13.02649 -80.23024,21.28993 -10.94556,4.54741 11.79701,32.71288 31.61392,31.32101 20.24085,-1.42165 60.66428,-5.02637 60.66428,-5.02637" id="path20162"/> </g> </svg>