<?xml version='1.0' encoding='utf-8'?>
<svg xmlns="http://www.w3.org/2000/svg" width="3e3" height="4436.6" version="1.1" viewBox="0 0 793.75 1173.9"> <path d="m696.07 341.29c-30.054-4.6932-35.549 47.862-1.8818 43.413 28.684-4.2094 29.735-36.388 1.8818-43.413z" fill="#fd5" stroke="#000" stroke-linecap="round" stroke-linejoin="round" stroke-width="19.244"/> <path d="m605 104.82c-6.743-26.06 8.7201-64.663 33.416-80.971 26.936-17.787 68.799-14.306 96.822 1.7128 27.046 15.461 50.061 48.556 48.839 79.685-1.6201 41.272-54.818 71.541-70.689 109.67-11.978 28.779 5.7455 57.507-3.8557 83.97-4.8716 13.427-36.546 13.678-42.842 0.85643-10.253-20.88-8.3879-71.762 0.85642-105.82 9.5818-35.299 61.096-49.758 65.119-86.112 1.5038-13.585-6.6965-29.151-17.993-36.844-14.919-10.16-34.953-14.697-49.696-4.2841-13.525 9.5525-14.639 38.817-28.704 47.554-12.371 7.6846-27.626 4.6738-31.274-9.425z" fill="#fd5" stroke="#000" stroke-dashoffset="37.8" stroke-linecap="round" stroke-linejoin="round" stroke-width="19.244" style="paint-order:normal"/> <path d="m87.314 238.66 22.026 126.06s-39.944-46.094-59.908-34.563c-53.206 30.729-52.955 153.17 0 184.33 20.445 12.031 62.212-34.559 62.212-34.559s5.6204 153.2 29.949 202.76c24.329 49.558 46.791 80.508 87.557 91.011 28.625 7.3748 68.492 2.1902 100.26-8.5704 22.526-7.6299 60.151-38.376 60.151-38.376 31.198-29.461 44.459-49.975 56.638-73.218 6.3468-12 12.764-24.004 17.42-35.917l13.087-36.849c15.397-51.508 14.871-77.659 19.716-112.36 0 0 9.1282 29.75 30.061 13.208 39.256-31.021 36.219-161.23 0.68368-150.1-19.648 6.1556-35.354 74.683-35.354 74.683l2.2885-154.23c-5.087-157.12-351.9-220.29-406.79-13.293z" fill="#e9b983" stroke="#000" stroke-dashoffset="37.8" stroke-linecap="round" stroke-linejoin="round" stroke-width="19.244" style="paint-order:normal"/> <path d="m246.74 355.62a17.281 19.466 0 0 1-17.281 19.466 17.281 19.466 0 0 1-17.281-19.466 17.281 19.466 0 0 1 17.281-19.466 17.281 19.466 0 0 1 17.281 19.466z" stroke="#000" stroke-dashoffset="37.8" stroke-linecap="round" stroke-linejoin="round" stroke-width="19.244" style="paint-order:fill markers stroke"/> <path d="m409.26 364.07a14.702 19.466 15.307 0 1-19.319 14.895 14.702 19.466 15.307 0 1-9.0415-22.657 14.702 19.466 15.307 0 1 19.319-14.895 14.702 19.466 15.307 0 1 9.0414 22.657z" stroke="#000" stroke-dashoffset="37.8" stroke-linecap="round" stroke-linejoin="round" stroke-width="19.244" style="paint-order:fill markers stroke"/> <path d="m203.04 277-44.804 54.579" fill="none" stroke="#000" stroke-dashoffset="37.8" stroke-linecap="round" stroke-linejoin="round" stroke-width="19.244" style="paint-order:normal"/> <path d="m376.58 268.04 60.253 36.25" fill="none" stroke="#000" stroke-dashoffset="37.8" stroke-linecap="round" stroke-linejoin="round" stroke-width="19.244" style="paint-order:normal"/> <path d="m309.79 297.9v202.76h66.784l-54.111 46.082" fill="none" stroke="#000" stroke-dashoffset="37.8" stroke-linecap="round" stroke-linejoin="round" stroke-width="19.244" style="paint-order:normal"/> <path d="m229.15 773.69-3.4561 76.035 77.187 47.234 19.585-42.66c0.67155-30.243 1.0744-60.571 6.9467-89.179-31.77 10.761-71.637 15.945-100.26 8.5704v0" fill="#e9b983" stroke="#000" stroke-dashoffset="37.8" stroke-linecap="round" stroke-linejoin="round" stroke-width="19.244" style="paint-order:normal"/> <path d="m125.04 1054.3 35.431-114.88-7.8308-6.1491c35.237-49.209 44.438-62.432 70.85-81.167l77.187 47.234 19.585-42.66c26.462-17.595 51.636-9.3577 69.123 10.403l107.47 30.642-41.802 92.592-50.458-13.293 7.957 189.59s-189.06 12.083-212.13-7.2505c-11.71-9.8125-1.9019-88.938-3.8636-89.202-27.663-3.7195-71.515-15.859-71.515-15.859z" fill="#fea" style="paint-order:normal"/> <path d="m225.69 849.72 77.187 47.234c-56.341 28.152-67.944 57.296-81.219 86.403l-66.818-52.47c35.237-49.209 44.438-62.432 70.85-81.167z" fill="#fff3c2" stroke="#000" stroke-dashoffset="37.8" stroke-linecap="round" stroke-linejoin="round" stroke-width="19.244" style="paint-order:normal"/> <path d="m369.13 609.38c-0.31279-1.8119-44.067-13.181-65.067 1.8714-29.863 21.405-28.23 84.17-9.2506 85.252 44.654 2.5442 68.814-46.775 68.814-46.775 7.574-12.709 13.95-25.572 5.503-40.348z" fill="#cd0f38" stroke="#000" stroke-dashoffset="37.8" stroke-linecap="round" stroke-linejoin="round" stroke-width="19.244" style="paint-order:normal"/> <path d="m302.88 896.96 19.585-42.66c26.462-17.595 51.636-9.3577 69.123 10.403l-30.529 66.19c-10.859-21.653-32.844-29.821-58.178-33.933z" fill="#fff3c2" stroke="#000" stroke-dashoffset="37.8" stroke-linecap="round" stroke-linejoin="round" stroke-width="19.244" style="paint-order:normal"/> <path d="m435.37 114.72-35.88-27.808s-77.76-60.112-124.25-70.115c-45.987-9.8939-100.11-11.365-140.55 12.672-55.937 33.254-101.49 97.719-108.29 162.44-3.805 36.179 40.321 101.41 40.321 101.41l26.497-70.309 41.473 49.41 26.497-81.667 27.649 56.45 62.489-66.818 28.522 83.074 35.713-60.033 27.631 60.033 28.818-47.361 34.701 33.409 22.398-38.795 12.302 28.427 22.652-39.233 30.049 52.042 23.694-23.691 26.977 29.315s1.8535-105.8-23.006-149.77c-10.639-18.815-28.699-36.997-49.845-41.474-24.557-5.1984-72.438 20.577-72.438 20.577" fill="#28170b" stroke="#000" stroke-dashoffset="37.8" stroke-linecap="round" stroke-linejoin="round" stroke-width="19.244" style="paint-order:normal"/> <path d="m406.79 974.64 7.957 189.59" fill="none" stroke="#000" stroke-dashoffset="37.8" stroke-linecap="round" stroke-linejoin="round" stroke-width="19.244" style="paint-order:normal"/> <path d="m298.31 960.46c1.5661 9.6909 3.6645 17.183 2.8457 36.725" fill="none" stroke="#000" stroke-dashoffset="37.8" stroke-linecap="round" stroke-linejoin="round" stroke-width="19.244" style="paint-order:normal"/> <path d="m161.18 941.89-35.431 114.88" fill="none" stroke="#000" stroke-dashoffset="37.8" stroke-linecap="round" stroke-linejoin="round" stroke-width="19.244" style="paint-order:normal"/> <path d="m298.31 1038.2c1.5661 9.6909 3.6645 17.183 2.8457 36.725" fill="none" stroke="#000" stroke-dashoffset="37.8" stroke-linecap="round" stroke-linejoin="round" stroke-width="19.244" style="paint-order:normal"/> <path d="m298.31 1116c1.5661 9.6909 3.6645 17.183 2.8457 36.725" fill="none" stroke="#000" stroke-dashoffset="37.8" stroke-linecap="round" stroke-linejoin="round" stroke-width="19.244" style="paint-order:normal"/> <path d="m463.62 617.61c-4.6564 11.913-11.073 23.917-17.42 35.917" fill="none" stroke="#000" stroke-dashoffset="37.8" stroke-linecap="round" stroke-linejoin="round" stroke-width="19.244" style="paint-order:normal"/> <path d="m468.63 967.27s87.462 42.499 121.59 38.449c21.999-2.6104 40.102-41.59 37.85-54.63-10.007-57.954-55.89-186.43-57.137-186.46-2.4968-9.121-29.395-149.7-36.287-153.74-10.578-6.2062-58.85-30.588-88.451-45.973-14.977-7.7842-23.326-3.4326-30.942 3.273-18.742 16.503-37.267 32.983-57.064 51.035-9.1518 8.3449-10.057 17.337-5.3089 23.68 5.7568 7.6908 16.792 9.5334 26.423 0.14544 12.172-11.865 34.866-32.627 40.353-38.415 7.6248-8.0444 15.952-5.8014 23.923-0.32547l52.788 36.267s-63.639 15.446-92.05 24.605c-19.76 6.3698-22.263 41.52-8.5461 38.97 32.99-6.1329 98.315-21.629 98.315-21.629s-76.289 18.879-101.78 27.331c-11.146 3.6963 2.9275 46.512 21.976 41.077 26.409-7.5349 81.865-19.189 81.865-19.189s-60.34 13.026-80.23 21.29c-10.946 4.5474 11.797 32.713 31.614 31.321 20.241-1.4216 60.664-5.0264 60.664-5.0264l50.814 144.43-63.388-20.809" fill="#e9b983" stroke="#000" stroke-dashoffset="37.8" stroke-linecap="round" stroke-linejoin="round" stroke-width="19.244" style="paint-order:normal"/> <path d="m391.59 864.7 107.47 30.642-41.802 92.592-61.091-16.094" fill="none" stroke="#000" stroke-dashoffset="37.8" stroke-linecap="round" stroke-linejoin="round" stroke-width="19.244" style="paint-order:normal"/> </svg>